<svg data-name="Layer 1" xmlns="http://www.w3.org/2000/svg" viewBox="0 0 80 80"><path d="M44.8 79.69a17.25 17.25 0 0 0 3.2-.57 29.39 29.39 0 0 0 2.94-.74 48.1 48.1 0 0 0 5.46-2.11 30.66 30.66 0 0 0 5.48-3.13 44.75 44.75 0 0 0 5-4c.67-.63 1.32-1.31 1.93-2A17 17 0 0 0 70.53 65c.61-.91 1.27-1.74 1.88-2.65s1.11-1.71 1.62-2.61a41.71 41.71 0 0 0 4.23-10.92 44.52 44.52 0 0 0 .9-12.13 31.21 31.21 0 0 0-1-6c-.45-1.81-1.07-3.53-1.64-5.29a26.48 26.48 0 0 0-1.24-2.91 25.38 25.38 0 0 0-1.46-2.72c-1-1.55-1.9-3.08-3-4.53a47.52 47.52 0 0 0-3.57-3.94 32.61 32.61 0 0 0-4.93-4.16A38.73 38.73 0 0 0 57 4a57.61 57.61 0 0 0-6-2.35 30.11 30.11 0 0 0-3-.73 24.91 24.91 0 0 0-3.2-.56 23.92 23.92 0 0 0-2.74-.3h-2.93a24.83 24.83 0 0 0-3.44.22 26 26 0 0 0-3.15.42c-1 .23-2.07.43-3.1.72s-1.89.56-2.81.87-1.78.78-2.63 1.17-1.87.87-2.78 1.37-1.78 1-2.66 1.58-1.56 1.13-2.31 1.7A39.68 39.68 0 0 0 2.4 28.17a41.15 41.15 0 0 0 .11 24.1 39.2 39.2 0 0 0 5.26 10.8 45.82 45.82 0 0 0 3.52 4.35A46.78 46.78 0 0 0 16 71.75a23 23 0 0 0 2.5 1.77c.88.58 1.75 1.17 2.68 1.68a39.38 39.38 0 0 0 5.51 2.46 36.41 36.41 0 0 0 11.57 2.26c1 0 2 .11 3 .07 1.15-.06 2.34-.28 3.54-.3z" fill="#fff"/><path d="M44.8 79.69c-1.23 0-2.45.26-3.68.3-1.06 0-2.14-.06-3.21-.07a20.81 20.81 0 0 1-2.84-.25c-1-.16-2-.24-3-.48a47.74 47.74 0 0 1-5.72-1.63A39.78 39.78 0 0 1 21 75.1a39.34 39.34 0 0 1-9.84-7.86 35.51 35.51 0 0 1-6.62-9.85 46.65 46.65 0 0 1-3.42-11.2 39.45 39.45 0 0 1 0-12.6 40.45 40.45 0 0 1 10.4-21.22c.78-.81 1.57-1.63 2.38-2.41A28.72 28.72 0 0 1 16.37 8a23.06 23.06 0 0 1 2.34-1.7c.88-.53 1.77-1 2.66-1.56A36.76 36.76 0 0 1 32.82.64a28.7 28.7 0 0 1 3.07-.43A24.35 24.35 0 0 1 39.41 0c.93.06 1.85 0 2.78 0s1.86.25 2.81.35A38.72 38.72 0 0 1 57.18 4a36.77 36.77 0 0 1 10.26 7.39 39.14 39.14 0 0 1 3.5 3.9c1.12 1.46 2.08 3 3.06 4.61a25.29 25.29 0 0 1 1.43 2.73 23.38 23.38 0 0 1 1.17 2.85c.57 1.82 1.27 3.57 1.67 5.45.1.44.21.83.29 1.28l.27 1.63c.15 1 .25 2 .33 3a38.4 38.4 0 0 1 0 6.16 37.51 37.51 0 0 1-.89 6 49.7 49.7 0 0 1-1.8 5.54A35.78 35.78 0 0 1 73.91 60c-.51.92-1.1 1.78-1.68 2.65S71 64.3 70.41 65.19a14.57 14.57 0 0 1-1.76 2c-.63.68-1.26 1.37-1.94 2a42.08 42.08 0 0 1-5.12 4.11 40.75 40.75 0 0 1-10.93 5.13 26.28 26.28 0 0 1-2.75.68 16.65 16.65 0 0 1-3.11.58zM38 1.52c0-.21-5.51.64-5.89.72a45.7 45.7 0 0 0-5.91 1.81 35.73 35.73 0 0 0-5.64 2.81 35.55 35.55 0 0 0-4.95 3.57A38.48 38.48 0 0 0 2.84 32a41 41 0 0 0-.59 12.31A41 41 0 0 0 5.5 56.16a35 35 0 0 0 6.89 10.34 34.16 34.16 0 0 0 4.2 3.87c.65.48 1.28 1 1.94 1.46.86.63 1.8 1.13 2.7 1.69a28.35 28.35 0 0 0 5.53 2.64 36.43 36.43 0 0 0 5.59 1.53c1.88.35 3.73.59 5.63.77 1 .1 2.06 0 3.09 0a21.49 21.49 0 0 0 2.77-.19 49.45 49.45 0 0 0 5.78-1.09 15.25 15.25 0 0 0 1.52-.35c.47-.16 1-.37 1.42-.53a15.22 15.22 0 0 0 2.57-1 18.41 18.41 0 0 1 2.36-1.16 6.15 6.15 0 0 0 .92-.57c.3-.17.6-.32.89-.5a30 30 0 0 0 4.36-3.12c1.28-1.16 2.64-2.27 3.8-3.55a39.08 39.08 0 0 0 3.37-4.4 39.8 39.8 0 0 0 4.56-8.84 37.25 37.25 0 0 0 2.28-11.29 38.76 38.76 0 0 0-1.22-12A40.46 40.46 0 0 0 74.77 25a32.64 32.64 0 0 0-2.49-5.07 43.93 43.93 0 0 0-3.35-4.77c-1.08-1.27-2.24-2.45-3.43-3.61a33.21 33.21 0 0 0-4.06-3.32 31.06 31.06 0 0 0-5.06-3 38.63 38.63 0 0 0-11.64-3.48A39.56 39.56 0 0 0 38 1.52z" fill="#2e2356"/><path d="M38 1.52a37.76 37.76 0 0 1 6.89.25A38.57 38.57 0 0 1 50.63 3a36.4 36.4 0 0 1 10.94 5.31 41.47 41.47 0 0 1 7.53 7 39.53 39.53 0 0 1 7.75 32.82 41 41 0 0 1-1.53 5.18c-.55 1.54-1.33 3-2 4.5a23.36 23.36 0 0 1-2.56 4.23 39.61 39.61 0 0 1-3.4 4.34c-1.22 1.28-2.61 2.39-3.89 3.62a20 20 0 0 1-2 1.51 27.43 27.43 0 0 1-2.32 1.54c-1.32.81-2.72 1.48-4.11 2.21a22.6 22.6 0 0 1-2.62 1 28.66 28.66 0 0 1-3 .89c-.92.22-1.83.47-2.77.65s-2 .26-3 .39a23.29 23.29 0 0 1-2.77.19 28.4 28.4 0 0 1-3.06 0 43 43 0 0 1-11.21-2.28A38.24 38.24 0 0 1 8.5 61.61a39.06 39.06 0 0 1-6.43-23.52 39.56 39.56 0 0 1 9.36-23.53 37.06 37.06 0 0 1 9.3-7.8A41.08 41.08 0 0 1 26.46 4a41 41 0 0 1 5.82-1.74A47.71 47.71 0 0 1 38 1.52zm2.84 75.67a36.5 36.5 0 0 0 12-2.41 33.35 33.35 0 0 0 10.26-6.14 42.08 42.08 0 0 0 4.21-4.13 46.88 46.88 0 0 0 3.33-4.42 39.4 39.4 0 0 0 4.26-9.31 31.83 31.83 0 0 0 1.1-5.4 34.29 34.29 0 0 0 .41-5.73A36.11 36.11 0 0 0 74.7 28.3a40.93 40.93 0 0 0-4.8-9.75 43.21 43.21 0 0 0-3.5-4.37 25 25 0 0 0-2.05-1.94 27.29 27.29 0 0 0-2.16-1.87 47.3 47.3 0 0 0-4.93-3.27 40.16 40.16 0 0 0-5.51-2.41 20.41 20.41 0 0 0-2.66-.81c-.88-.18-1.77-.55-2.66-.64-1.07-.11-2.15-.25-3.21-.4a22.62 22.62 0 0 0-3-.08c-1 0-2.06-.06-3.11 0s-1.81.17-2.71.28A36 36 0 0 0 29 4.35c-.39.11-.73.27-1.1.39s-1 .31-1.43.48c-.88.33-1.73.82-2.57 1.23a48.2 48.2 0 0 0-4.84 2.88 22 22 0 0 0-2.47 1.94c-.74.65-1.53 1.26-2.26 1.93a33.77 33.77 0 0 0-3.67 4.32 28 28 0 0 0-2.58 4.22c-.38.74-.83 1.43-1.19 2.18s-.69 1.61-1 2.42a10.89 10.89 0 0 0-.44 1.25A13.5 13.5 0 0 0 5 29c-.19.92-.48 1.82-.69 2.73a33.36 33.36 0 0 0-.81 5.63 37.24 37.24 0 0 0 0 5.88A49.59 49.59 0 0 0 4.4 49a42 42 0 0 0 3.84 9.74 27.1 27.1 0 0 0 3 4.43c.53.69 1.07 1.38 1.64 2s1.24 1.21 1.88 1.81c.33.3.65.62 1 .93s.75.56 1.08.89a17.87 17.87 0 0 0 2.33 1.83 28.58 28.58 0 0 0 4.25 2.54c.93.44 1.81.94 2.76 1.31s1.93.77 2.91 1.08a31.94 31.94 0 0 0 5.88 1.27 49.18 49.18 0 0 0 5.9.36z" fill="#fff"/><path d="M40.87 77.19a37.62 37.62 0 0 1-12-1.68c-1-.33-1.93-.7-2.88-1.07s-1.81-.9-2.74-1.31a30.72 30.72 0 0 1-4.18-2.59c-.41-.27-.8-.57-1.21-.83a7.58 7.58 0 0 1-1.17-1c-.29-.28-.66-.49-1-.78s-.73-.7-1.11-1A34.18 34.18 0 0 1 11.14 63a26 26 0 0 1-3-4.46c-.73-1.42-1.34-2.86-2.07-4.29A19.22 19.22 0 0 1 5.22 52a24.41 24.41 0 0 1-.84-3 55.86 55.86 0 0 1-.91-6 34.3 34.3 0 0 1 0-5.91 33.14 33.14 0 0 1 .83-5.59c.11-.4.21-.83.34-1.24s.23-1.05.39-1.56a23.76 23.76 0 0 1 .89-2.53c.36-.8.65-1.63 1-2.42s.79-1.43 1.15-2.14a27.66 27.66 0 0 1 2.72-4.31 33.84 33.84 0 0 1 3.58-4.16 37.09 37.09 0 0 1 4.78-3.89c.87-.57 1.74-1.14 2.62-1.7.72-.46 1.49-.8 2.25-1.19a28.22 28.22 0 0 1 5.09-2.05 34.75 34.75 0 0 1 5.52-1.26c.89-.1 1.78-.2 2.68-.27 1.06-.08 2.09 0 3.15 0a40.14 40.14 0 0 1 6.09.51c.89.13 1.81.45 2.69.67a26 26 0 0 1 2.76.81 34.44 34.44 0 0 1 5.41 2.41 42.5 42.5 0 0 1 5 3.32c.75.58 1.4 1.27 2.13 1.88a18.71 18.71 0 0 1 2 1.94A54 54 0 0 1 70 18.69a46.8 46.8 0 0 1 2.75 4.82A33 33 0 0 1 76 33.81a35.4 35.4 0 0 1 0 11.71 38.28 38.28 0 0 1-2.92 10 40.16 40.16 0 0 1-5.91 9.1A36.25 36.25 0 0 1 46.74 76.5a35.09 35.09 0 0 1-5.87.69zm24.75-40.66a1.59 1.59 0 0 0-.05-.68c0-.4-.13-.79-.18-1.19a14.43 14.43 0 0 0-.4-1.82 24.94 24.94 0 0 0-1.4-3.94A27.4 27.4 0 0 0 59.2 22a25.94 25.94 0 0 0-2.43-2.49A31.32 31.32 0 0 0 53.24 17 22.26 22.26 0 0 0 46 14a22.46 22.46 0 0 0-4.4-.73 29.82 29.82 0 0 0-4.12 0 33.93 33.93 0 0 0-4 .68 36.74 36.74 0 0 0-4 1.36 23.3 23.3 0 0 0-3.94 2.11A20.49 20.49 0 0 0 22 20.2a29.06 29.06 0 0 0-2.72 2.94A37.6 37.6 0 0 0 17 26.59c-2.84 4.58-3.69 10.21-3.35 15.51a26.11 26.11 0 0 0 1.92 8 31.61 31.61 0 0 0 4.08 6.9 22.68 22.68 0 0 0 2.43 2.57 20.34 20.34 0 0 0 3.3 2.53A18.87 18.87 0 0 0 28.7 64a37.19 37.19 0 0 0 4 1.47c.64.17 1.26.4 1.91.52s1.41.2 2.13.3a15.17 15.17 0 0 0 3.8.21c.71-.08 1.43 0 2.13-.13a16.51 16.51 0 0 0 2.09-.44 20.53 20.53 0 0 0 3.61-1c.63-.27 1.28-.49 1.9-.76s1.42-.75 2.14-1.1a22.1 22.1 0 0 0 3.51-2.34c.42-.32.82-.73 1.21-1.09s1-1 1.52-1.49a24 24 0 0 0 2.1-2.61 26.79 26.79 0 0 0 3.59-6.92 23.56 23.56 0 0 0 1-4.07 36.75 36.75 0 0 0 .42-4.18 16.54 16.54 0 0 0-.14-3.84zm-.08-8.61a3 3 0 0 0 .61 1.5c.33.24 1-.13 1.3-.26a28.46 28.46 0 0 0 2.93-1.45c.46-.25 1-.4 1.43-.64.27-.14.35-.2.27-.49a4.31 4.31 0 0 0-.4-.84c-.16-.29-.14-.32-.41-.22s-.56.31-.83.44c-.48.23-1 .46-1.45.72-.17.09-1 .66-1.12.46s1.24-1.14 1.36-1.24c.39-.33.74-.71 1.14-1 .16-.12.52-.27.58-.46s-.13-.5-.22-.7-.26-.61-.43-.9-.16-.28-.45-.18c-.48.18-.94.49-1.42.69-1 .43-2 .87-3 1.37-.26.13-.53.23-.79.35s-.37.28-.22.66c.07.21.16.71.33.85s.48 0 .73-.12a27.92 27.92 0 0 0 3.18-1.54 10.62 10.62 0 0 1-1.46 1.38c-.27.25-.55.47-.83.71s-.85.65-.83.91zM67 49.41c-.93.14-1.3 1-1.6 1.76-.13.36-.31.68-.44 1a1.64 1.64 0 0 0-.18.51c0 .3.09.27.36.37 1.72.62 3.36 1.48 5.09 2.06.34.11.44.08.63-.23s.44-.89.31-1.05a3.2 3.2 0 0 0-.64-.21c-.2-.07-.4-.16-.6-.24-.37-.15-1.19-.33-1.11-.78.21-1.1 1.83-.13 2.4.13s.59 0 .78-.44.52-.78 0-1-1-.34-1.43-.54a2.3 2.3 0 0 0-.92-.22c-.24 0-.41.2-.62.22s-.19-.14-.28-.39a1.14 1.14 0 0 0-.4-.52 2.73 2.73 0 0 0-1.35-.43zm-3.15-25.95c.76 0 1.57-.8 2.12-1.24a13.35 13.35 0 0 0 1.8-1.46c1-1.16-.45-3.47-1.91-3.37a4.43 4.43 0 0 0-2 1.2 9.42 9.42 0 0 0-1.92 1.64c-.94 1.16.57 3.26 1.91 3.23zM68.41 57c-.09-.06-.26-.08-.36-.14s-.26-.2-.39-.28c-.36-.24-.71-.49-1.08-.72a7.18 7.18 0 0 0-2-1.2c-.87-.19-1.51.53-1.9 1.21a1.8 1.8 0 0 0 0 2.32 13.75 13.75 0 0 0 1.92 1.47 4.35 4.35 0 0 0 2.24 1c.81-.06 1.46-1 1.74-1.66a2 2 0 0 0 .19-1.13c.02-.3-.28-.54-.36-.87zm-35-48.6c0-.15.14-.29.19-.42a1.67 1.67 0 0 0 .11-.63 2.2 2.2 0 0 0-.51-1.43c-.65-.77-1.74-.29-2.54-.06a5.26 5.26 0 0 0-1.24.35c-.3.22-.08.71 0 1 .22 1 .59 2 .87 3 .09.33.17.66.26 1s.09.88.32 1.07.87-.07 1.12-.16c.43-.15.25-.34.15-.75s-.19-.76-.3-1.13-.39-.81.12-1c.94-.28 1 1.25 1.22 1.88s.21.54.75.41a2.06 2.06 0 0 0 .71-.18c.2-.17.09-.28 0-.57-.27-.91-.29-1.85-1.23-2.38zm34.16 34c0 .39 0 .58.34.72a8.34 8.34 0 0 0 1.08.32c.63.15 1.25.35 1.86.56s1.5.46 2.26.65c.25.07.66.26.87 0a3 3 0 0 0 .11-1.24c-.13-.46-.76-.22-1.06-.48s-.18-.81-.1-1.06.51-.29.84-.35c.51-.08.46-.38.5-.85 0-.17.12-.67 0-.8s-1 .07-1.25.09c-.76.08-1.51.22-2.26.36s-1.54.2-2.31.3c-.31 0-.65 0-.75.34a6.79 6.79 0 0 0-.13 1.41zm-31.37-32c.34.24.41.57.85.74a2.58 2.58 0 0 0 1.35.1A1.82 1.82 0 0 0 40.13 10a10.84 10.84 0 0 0 0-2.35 5.27 5.27 0 0 0-.29-2.24 2.32 2.32 0 0 0-3.69-.07A4.89 4.89 0 0 0 36 7.75c0 .86.2 1.72.2 2.57zm-.37 59c.21 0-.22-.7-.27-.76a2.8 2.8 0 0 0-3.19-.64c-.61.5-.66 1.48-.8 2.18a8.55 8.55 0 0 0-.43 2.82c.24 1.38 2.79 2.09 3.67 1a5.91 5.91 0 0 0 .69-2.39 9.8 9.8 0 0 0 .33-2.34zM12.17 44.43c-.4-.63-.74-1.15-1.57-1.09a19 19 0 0 0-2.35.42 4.62 4.62 0 0 0-2 .61c-.57.5-.48 1.66-.29 2.31a1.7 1.7 0 0 0 1.3 1.38 7.81 7.81 0 0 0 2.61-.43c.73-.17 1.76-.19 2.22-.88a2 2 0 0 0 .25-1.15 3 3 0 0 0 0-.52c-.05-.22-.2-.43-.17-.65zm5.18-22.27c-.15-.25-.48-.5-.56-.78s.14-.48.3-.71.2-.4.54-.27.64.48 1 .23a3.5 3.5 0 0 0 .59-.73c.28-.36.09-.39-.28-.59-.68-.36-1.37-.71-2-1.09s-1.36-.72-2.06-1c-.23-.09-.87-.57-1.12-.48s-.37.41-.47.53-.41.49-.6.74-.2.48.13.86c.54.61 1 1.24 1.54 1.88s1 1.35 1.5 2c.24.3.43.79.8.48a3.09 3.09 0 0 0 .69-1.07zm-5.52 17.15a1.58 1.58 0 0 0-1.67-1.74 1.54 1.54 0 0 0-1.35.58A9.42 9.42 0 0 0 8 39.37c-.29.46-.5.9-1.14.82-.46-.06-.84-.65-.37-1 .3-.23.87 0 1.07-.23a2.2 2.2 0 0 0 0-1.41c-.27-.26-1.16 0-1.43.16a1.51 1.51 0 0 0-.81 1.12A2.74 2.74 0 0 0 6 41.45a2.53 2.53 0 0 0 1.4.31 1.94 1.94 0 0 0 1.31-1c.3-.41.54-.86.85-1.27s.92-.68 1.24-.22a.54.54 0 0 1-.2.79c-.24.12-.67 0-.82.25a2.93 2.93 0 0 0 0 .93c0 .32 0 .41.37.42 1.32.08 1.72-1.26 1.68-2.35zM53.7 14.52a1.37 1.37 0 0 0 1.12-.52c.2-.24.8-.88.64-1.25-.1-.2-.72-.41-.94-.49-.6-.23-.71.47-1 .88s-.86.37-.82-.21a5.38 5.38 0 0 1 .63-1.51c.22-.52.5-1 .74-1.52s.42-1.1 1-.85c.37.17.3.59.17.9s-.25.39-.13.6.58.37.78.47c.5.26.56.08.76-.4a1.5 1.5 0 0 0 0-1.41 2.91 2.91 0 0 0-2.3-1.29c-1.07 0-1.64 1-2 1.9S50.9 12 51.2 13a2.53 2.53 0 0 0 2.5 1.52zM49 71.71c0 .35-.25-.14-.31-.27-.19-.37-.31-.79-.49-1.17s-.36-.86-.53-1.3a6.52 6.52 0 0 0-.57-1.36c-.27-.34-.74 0-1.11.15-.55.21-.35.36-.11.83.52 1 1 2 1.47 2.92l.65 1.36c.17.34.3.94.71.92a5.93 5.93 0 0 0 1.13-.36c.12 0 .48-.12.56-.23s0-.58 0-.77c-.12-1-.25-1.93-.39-2.89-.08-.52-.14-1-.21-1.55 0-.26 0-1.18-.25-1.34a3 3 0 0 0-1.42.45c-.15.29.2 1.16.26 1.48.09.48.19 1 .29 1.46s.18 1.13.32 1.67zm10.56-6.33c-.28.21-.9.51-1.06.81s.49.88.61 1.27c.16.56-.45.83-.86.5a5.1 5.1 0 0 1-.89-1.17c-.27-.4-.52-.82-.8-1.21s-.73-.82-.63-1.28.69-.42 1-.1c.09.11.24.43.37.49s.31-.1.47-.22c.34-.25.88-.35.62-.8a1.7 1.7 0 0 0-1.39-.94 2.73 2.73 0 0 0-2.22 1.41c-.54 1 .18 1.91.75 2.69.29.4.6.8.9 1.19a4.24 4.24 0 0 0 1.05 1.14c.93.48 2.16-.28 2.7-1a1.52 1.52 0 0 0 .33-1.35c-.13-.35-.65-1.35-.97-1.43zm-50.36-11a6.28 6.28 0 0 0 1.34-.38c.44-.24 0-.82-.12-1.19s-.48-.18-.89-.05-1 .28-1.07-.33.57-.7 1-.85S10.5 51.21 11 51a3.58 3.58 0 0 1 1.54-.44.53.53 0 0 1 .18 1c-.26.2-.78.15-.8.51s.24 1.14.49 1.21 1-.49 1.2-.71a1.81 1.81 0 0 0 .27-1.47c-.16-.86-.71-1.93-1.69-2a7.59 7.59 0 0 0-2.71.9c-.86.3-1.95.68-2 1.72s.52 2.59 1.7 2.65zm6.17-29.52a1.4 1.4 0 0 0-.52-1.13c-.22-.17-1-.64-1.2-.51a3 3 0 0 0-.58 1.18c.12.35.86.48 1.08.78a.48.48 0 0 1-.39.81c-.46 0-1-.45-1.34-.66l-1-.55a4 4 0 0 1-1.14-.7c-.24-.28-.31-.75.11-.88.27-.09.5.08.72.2s.42.2.65-.16.59-.71.36-1a1.72 1.72 0 0 0-1.25-.43c-.9.06-1.45.94-1.71 1.71-.42 1.18.2 1.84 1.18 2.39l1.37.78a5 5 0 0 0 1.5.69c1.13.13 2.2-1.46 2.14-2.53zm1 36.69c.17 0 .39-.23.49-.33.24-.27.19-.3 0-.62s-.8-.7-.46-1.1c.19-.23.75-.78 1-.62s.5.81.86 1.08c.2.15.23.22.5.07s.47-.35.47-.55c0-.37-.59-.87-.8-1.15a8.29 8.29 0 0 0-.6-.86c-.13-.13-.27-.24-.4-.38s-.17-.29-.45-.12c-.83.49-1.52 1.28-2.29 1.84s-1.38 1.11-2.07 1.65c-.37.29-.45.44-.16.84s.58.6.85.94.5.73.77 1.08.54.32.93-.05-.07-.6-.33-.95-.72-.7-.51-1c.09-.14.93-.85 1.11-.8.38.06.53 1.05 1.02 1.02zM28.2 9.16c-.28-.21-.36-.7-.55-1a1.41 1.41 0 0 0-.8-.64c-.77-.22-1.68.36-2.33.68-.35.16-.92.28-.89.68a4.54 4.54 0 0 0 .43 1.12c.33.81.75 1.65 1.15 2.43.19.37.67 2 1.09 2 .16 0 .4-.18.54-.24s.45-.1.55-.23-.11-.67-.23-1a5.42 5.42 0 0 1-.61-1.26c-.05-.39.36-.42.66-.57a2.15 2.15 0 0 0 .92-.74c.24-.39.07-.81.07-1.23zm21.22 3.67c.35 0 .63-.6.54-.92s-.84-.46-1.1-.54c-.45-.14-.8-.08-.65-.63.1-.38.19-1.09.65-1.09s.92.46 1.25.32a.74.74 0 0 0 .21-.91c-.25-.31-1-.14-1.27-.49s.09-.94.21-1.17c.39-.77 1.52.68 2.05.07a.6.6 0 0 0-.16-1 10.22 10.22 0 0 0-1.32-.44c-.4-.11-.77-.27-1.16-.4s-.47 0-.62.49c-.33.93-.61 1.88-.88 2.83-.14.5-.3 1-.46 1.51-.1.29-.52 1-.26 1.29a2.35 2.35 0 0 0 .6.2c.24.09.47.18.71.25s.54.2.82.31a2.47 2.47 0 0 0 .84.32zM25.09 64.4c0-.3-.64-.52-.85-.67s-.5-.58-.6-.06c-.15.79-.27 1.66-.36 2.45 0 .35-.07.7-.11 1a2.78 2.78 0 0 1-.48 1c-.2.35-.38.7-.59 1s-.33.6.12.86c.17.1.67.49.88.39s.43-.7.55-.89c.21-.35.36-.75.58-1.1a3.49 3.49 0 0 1 1-.93c.59-.45 1.15-1 1.75-1.39.25-.19.72-.32.39-.62a5.22 5.22 0 0 0-1-.54c-.25-.13-.2-.15-.43 0a4.37 4.37 0 0 0-.44.42 5.9 5.9 0 0 0-.5.5c-.11.12-.28.47-.43.52-.3.11 0-.57.1-.71.18-.3.33-.75.42-1.23zm12.45 9.41c0 .27-.13 1 .11 1.14a3 3 0 0 0 1.27 0c.34-.16.19-1.18.2-1.56s-.15-1 0-1.19.88 0 1.16-.09.33-.33.33-.68-.09-.41-.47-.44c-.18 0-.83.09-1 0s-.09-.81-.09-1c0-.39.08-.46.47-.48s.65.06 1 0 .36-.35.35-.72-.29-.38-.71-.39h-1.1c-.26 0-1.14-.16-1.37 0s-.13.9-.13 1.19v1.52c.01.89.02 1.8-.02 2.7zm5.72-62.48h.49c.03 0 .15-.14.18-.31.09-.46.11-1 .17-1.45.11-.92.19-1.86.26-2.78 0-.56-.06-.69.54-.7s1 .12 1-.54-.23-.62-.8-.69c-.41-.05-.82-.07-1.23-.09s-.79 0-1.18-.08l-.77-.09c-.31 0-.32 0-.39.27-.15.59 0 .82.55.86.16 0 .53-.05.66.06s.07.51 0 .74c-.1.94-.17 1.88-.33 2.81a6 6 0 0 0-.19 1.56c.13.51.61.43 1.04.43zm14 5.76c.27-.1.51-.58.69-.81s.45-.59.69-.87.46-.58.68-.86.59-.58.84-.92.28-.58.61-.46.56.62.85.63.37-.35.49-.52c.26-.38.1-.52-.27-.8-.57-.43-1.07-1-1.65-1.38-.25-.18-.51-.35-.77-.51s-.45-.42-.72-.09-.42.46-.3.71.69.35.8.7-.75 1.24-1 1.55c-.5.65-1 1.27-1.51 1.93-.2.28-.68.68-.46 1a2.44 2.44 0 0 0 1.03.7zm-35.64.56c0-.25-.41-.69-.56-.87-.29-.35-.64-.66-.94-1-.48-.57-1-1.13-1.51-1.67-.35-.37-.28-.46.08-.74.16-.12.57-.4.61-.6s-.28-.47-.41-.59c-.36-.34-.52-.12-.83.18-.47.45-1 .87-1.45 1.31l-.74.65c-.27.24-.56.33-.42.7.08.21.3.58.55.58.43 0 .61-.66 1-.75s1.22 1.1 1.49 1.43c.52.65 1.06 1.28 1.6 1.91.31.35.34.66.77.28a2.83 2.83 0 0 0 .76-.82zM64.71 64c-.11-.48-.88-1-1.23-1.35-.54-.57-1.1-1.11-1.65-1.67a3.83 3.83 0 0 1-.69-.76c-.17-.34.13-.52.37-.77s.38-.28.28-.56a1.29 1.29 0 0 0-.38-.46c-.18-.13-.16-.15-.36 0a4.84 4.84 0 0 0-.7.73c-.3.3-.61.59-.9.9l-.67.69c-.24.26-.67.54-.51.88.08.17.44.53.63.52s.52-.73.85-.83 1.15.91 1.43 1.18c.63.61 1.25 1.25 1.84 1.9.19.21.46.65.77.59s.38-.38.5-.49a1.71 1.71 0 0 0 .42-.5zm-44.46-2c-.13.29-.43.46-.63.69s-.55.7-.82 1c-.49.62-1 1.25-1.49 1.85-.29.35-.49.46-.11.79.21.18.56.71.85.62s.5-.59.66-.76c.29-.33.54-.68.82-1l1.19-1.39c.16-.19.33-.6.55-.71s.44.18.68.37.45.45.68.35.58-.6.5-.83-.52-.49-.73-.66-.5-.43-.76-.64-.6-.55-.91-.81-.68-.69-.91-.59-.27.34-.37.45-.26.23-.11.44.71.4.91.83zm38.87-43.31c0 .22.46.65.62.78.34.29.52.2.82-.09L62 17.9a19.29 19.29 0 0 1 1.42-1.44c.36-.3 1.34-1 1.11-1.48a3 3 0 0 0-.67-.66c-.29-.25-.32-.23-.58 0-.5.53-1 1.09-1.54 1.59s-.86.82-1.27 1.25-1.37 1.12-1.35 1.53zM54 71.81a2.73 2.73 0 0 0 .84-.37c.34-.18.4-.16.26-.52-.24-.63-.57-1.23-.87-1.84s-.71-1.43-1-2.16c-.14-.31-.27-.61-.42-.92s-.2-.72-.56-.64a3.35 3.35 0 0 0-.79.37c-.39.21-.38.24-.18.65.28.57.54 1.14.82 1.72l1 2.07c.14.38.47 1.6.9 1.64zM73.41 47.5c0-.4-1.42-.51-1.7-.57-.7-.13-1.4-.29-2.1-.45s-1.26-.29-1.9-.41c-.3-.06-.5-.21-.69 0a2.17 2.17 0 0 0-.19 1c0 .41.09.43.5.51s.66.14 1 .21c.69.16 1.4.24 2.08.42s1.44.36 2.17.51c.31.07.46.13.61-.17a4.57 4.57 0 0 0 .22-1.05zM13.33 55a8.28 8.28 0 0 1-1.52 1c-.5.34-1.06.62-1.57.94-.34.2-.47.26-.29.65a3.23 3.23 0 0 0 .45.84c.28.2.62-.08.86-.25s.73-.48 1.1-.72c.61-.39 1.21-.76 1.84-1.12l.91-.54c.18-.1.75-.35.85-.53s-.11-.45-.25-.69-.21-.58-.43-.64-.71.38-.87.48a3.36 3.36 0 0 1-1.08.58z" fill="#2e2356"/><path d="M65.62 36.53a18.43 18.43 0 0 1 .15 3.93 30.59 30.59 0 0 1-.43 4.26 26 26 0 0 1-1.07 4.1 18.7 18.7 0 0 1-1.52 3.53c-.65 1.16-1.41 2.23-2.12 3.35a21.07 21.07 0 0 1-2.07 2.56c-.44.49-1 .93-1.45 1.39a16.36 16.36 0 0 1-1.33 1.17 25 25 0 0 1-3.57 2.35c-1.28.66-2.56 1.22-3.89 1.79a23.22 23.22 0 0 1-3.74 1 11.46 11.46 0 0 1-1.83.39c-.78.09-1.58.09-2.36.16a19.12 19.12 0 0 1-3.85-.25 32.58 32.58 0 0 1-4-.83 31.59 31.59 0 0 1-4-1.51 20.41 20.41 0 0 1-3.28-2A20.43 20.43 0 0 1 22 59.47a25.46 25.46 0 0 1-2.39-2.59c-.81-1.09-1.53-2.2-2.24-3.35a24.85 24.85 0 0 1-3-7.41 26.13 26.13 0 0 1-.69-8.22 38.19 38.19 0 0 1 .6-4c.06-.31 0-.64.14-.95s.26-.65.36-1c.2-.7.43-1.37.67-2a18.6 18.6 0 0 1 1.7-3.47A33.53 33.53 0 0 1 19.41 23a31.87 31.87 0 0 1 2.76-2.93 19.85 19.85 0 0 1 3.51-2.76 28.18 28.18 0 0 1 8-3.42 26.56 26.56 0 0 1 4-.64 35.39 35.39 0 0 1 4.12 0 24.51 24.51 0 0 1 8.25 2 26.9 26.9 0 0 1 6.91 4.34 26.3 26.3 0 0 1 5 6A26.05 26.05 0 0 1 65 32.94a17 17 0 0 1 .37 1.72c0 .4.13.79.18 1.19a1.59 1.59 0 0 1 .07.68zm-24-17.65a9.42 9.42 0 0 0-2 1.44 14.71 14.71 0 0 0-1.14.95c-.21.2-.28.37-.56.4a6.87 6.87 0 0 1-.78-.08 9.52 9.52 0 0 0-2.77.4c-.43.12-.62-.11-1-.34s-.86-.54-1.28-.81-2.07-1.87-2.36-1a9.58 9.58 0 0 0-.16 3.07 7.24 7.24 0 0 0 .17 1.3c.09.38.46 1 .4 1.4 0 .16-.2.31-.27.44a4.93 4.93 0 0 0-.3.66 4.53 4.53 0 0 0-.24 1.55 5.62 5.62 0 0 0 0 .82c.05.35.13.3-.11.36a2.05 2.05 0 0 1-.62-.17c-.36-.09-.72-.16-1.08-.23-.56-.11-1.14-.2-1.71-.27-.29 0-1 0-.31.14a25.4 25.4 0 0 1 3.35.65c.42.12.63.12.8.49.27.58.12.48-.45.44a22.34 22.34 0 0 0-6.66.68c-.15 0-1 .22-.52.28a2.57 2.57 0 0 0 .72-.15l1-.2a24.63 24.63 0 0 1 3.73-.43 14.11 14.11 0 0 1 1.72 0c.21 0 1.12 0 .86.41-.06.09-.54.11-.65.14-.27.06-.53.14-.8.22a13.11 13.11 0 0 0-1.56.64 13.58 13.58 0 0 0-1.34.76c-.13.08-1.19.81-.91.86s1-.64 1.21-.78a12.84 12.84 0 0 1 1.51-.8 10.32 10.32 0 0 1 1.49-.56c.35-.11 1-.39 1.37-.2a3.94 3.94 0 0 1 .73.79c.27.31.49.47.45.89a8.12 8.12 0 0 1-1.14 2.72 23.7 23.7 0 0 0-1 2.41 12.41 12.41 0 0 0-.84 2.74 11.81 11.81 0 0 0-.07 1.68 11.43 11.43 0 0 0 0 1.55 28.17 28.17 0 0 0 .34 2.91c.22.9.45 1.81.67 2.71a13.73 13.73 0 0 1 .34 3c0 .43.06 1-.31 1.25s-1 .38-1.37.79c-.66.69-.49 1.69.55 1.73.48 0 1 0 1.42.05a8.16 8.16 0 0 0 1.3.07 1.38 1.38 0 0 0 .57-.11c.06 0 .22-.26.28-.25s.11.35.17.45a1 1 0 0 0 .69.35 10.19 10.19 0 0 0 1.47-.09c.46 0 .76.37 1.25.21 1.07-.34.38-1.4.41-2.12a9.14 9.14 0 0 1 .84-2.59c.32-1 .43-2 .78-2.93a9.63 9.63 0 0 1 1.5-2.92 7.89 7.89 0 0 1 5.47-2.93 3.87 3.87 0 0 1 1.39.2c.1 0 1.18.51 1.17.52s-.64-.08-.76-.09a7.55 7.55 0 0 0-.83 0 7.62 7.62 0 0 0-5.44 2.28 7.88 7.88 0 0 0-2.1 7c.09.45.47 1 .45 1.46 0 .7-.84.74-1.34.79s-.91.36-.76.89 1.07.43 1.5.42a54 54 0 0 1 7.08 0c.28 0 1.57-.16 1.68.1s-.9.65-1.12.75a6 6 0 0 1-3 .43c-2.08-.14-4.12-.81-6.21-.44a7.53 7.53 0 0 0-2.75 1.13 5.91 5.91 0 0 0-1.18 1.11 3.22 3.22 0 0 0-.81 1.42c-.12 1.56 1.66.24 2.15-.09a5.38 5.38 0 0 1 3.27-1 11.48 11.48 0 0 1 3.06.62 11.78 11.78 0 0 0 3 .44 8.4 8.4 0 0 0 3.68-.6 10 10 0 0 0 2.53-1.59 5.58 5.58 0 0 0 1.24-1.28 8.12 8.12 0 0 0 .58-1.51 17.65 17.65 0 0 1 1.55-2.38 13.36 13.36 0 0 0 1.93-6c.14-2 .28-4.29-.52-6.17a11.37 11.37 0 0 0-.68-1.35 9.53 9.53 0 0 0-1-1.51c-.28-.3-.54-.54-.8-.86a14.07 14.07 0 0 0-1-1 18.82 18.82 0 0 0-2.83-2.1 16.59 16.59 0 0 0-2.75-1.48 10 10 0 0 1-2.57-1.54 1 1 0 0 1-.34-1.29c.28-.58.91-.35 1.46-.26a13 13 0 0 1 3.82 1.35c.13.06.45.32.59.26S48.08 32 48 32a12 12 0 0 0-1.73-.83 12.34 12.34 0 0 0-1.79-.55c-.23-.06-1.66-.13-1.73-.29-.23-.52 3-.75 3.32-.77a31.07 31.07 0 0 1 4 .09c.13 0 .64.13.7 0s-.39-.16-.44-.16c-.7-.08-1.4-.12-2.1-.14a23.7 23.7 0 0 0-4 .16c-.19 0-1.08.29-1.19.15a5.41 5.41 0 0 1 .12-.55c.11-.28.32-.33.58-.44.59-.25 1.19-.47 1.79-.66a8.24 8.24 0 0 0 1.65-.52c0-.44-3.73 1.17-3.85 1.07s-.18-1.11-.24-1.36a7.38 7.38 0 0 0-.59-1.65 3.14 3.14 0 0 1-.39-.69 1.75 1.75 0 0 1 .15-.8 3.79 3.79 0 0 0 .07-1.74 15.48 15.48 0 0 1-.29-1.93c-.04-.6.15-1.16-.37-1.51zm23.92 9.04c0-.25.59-.69.77-.84s.6-.51.89-.78a11.22 11.22 0 0 0 1.48-1.39 23 23 0 0 1-2.76 1.35c-.35.17-.87.6-1.18.25a3.29 3.29 0 0 1-.34-.86c-.14-.4 0-.45.35-.62 1-.43 2-.91 2.92-1.35.48-.21.94-.44 1.41-.66l.64-.29c.33-.16.37-.25.58.1a8.34 8.34 0 0 1 .38.8c.07.16.32.5.29.69s-.28.34-.45.47-.47.39-.7.6c-.4.36-.82.7-1.23 1.06-.19.16-1.17.94-.39.66 1.07-.39 2-1.2 3.07-1.59.45-.16.59.58.75.94s.18.34-.07.54a4.89 4.89 0 0 1-.93.42c-1.12.47-2.18 1.11-3.29 1.62-.31.14-1.12.59-1.47.45s-.72-1.24-.72-1.57zM67 49.41a2.68 2.68 0 0 1 1.2.37 1.55 1.55 0 0 1 .39.33c.11.13.19.63.26.68s.21 0 .35-.07a1.18 1.18 0 0 1 .74-.12 8.13 8.13 0 0 1 1.41.49c.23.09.89.21 1 .46s-.19.48-.24.61-.14.56-.29.67-.76-.16-1-.28c-.43-.17-.94-.51-1.42-.42a.61.61 0 0 0-.47.41c-.12.31-.06.34.19.48a10.29 10.29 0 0 0 1.41.6 3.23 3.23 0 0 1 .64.23c.14.13.11 0 .06.3s-.23 1-.51 1.06-.68-.15-.86-.2c-.48-.14-1-.38-1.42-.56-.85-.33-1.67-.73-2.52-1.08-.37-.16-1.14-.24-1-.71a6.44 6.44 0 0 1 .51-1.25c.25-.84.49-1.84 1.57-2zm-.16 1.72c-.38-.05-.73.52-.45.76a3.52 3.52 0 0 0 1 .39c.27.11.33.19.5 0a.65.65 0 0 0 .09-.49c-.15-.41-.81-.65-1.15-.66zm-2.99-27.67c-1.34 0-2.83-2.07-2-3.23a9.42 9.42 0 0 1 1.92-1.64 4.52 4.52 0 0 1 2-1.2c1.46-.1 2.94 2.21 1.91 3.37a12 12 0 0 1-1.72 1.39c-.49.46-1.32 1.28-2.11 1.31zm3-4.19c0-1.14-1.68.41-2 .67s-.63.45-.94.69-1 .61-1 1c0 1.12 1.81-.5 2-.69s.6-.48.9-.71.99-.54 1.01-.96zM68.41 57c.08.33.38.57.45.9a2 2 0 0 1-.19 1.1c-.28.68-.93 1.6-1.74 1.66a4.35 4.35 0 0 1-2.24-1 13.75 13.75 0 0 1-1.92-1.47 1.8 1.8 0 0 1 0-2.32c.39-.68 1-1.4 1.9-1.21a7.18 7.18 0 0 1 2 1.2c.37.23.72.48 1.08.72.13.08.26.21.39.28s.18.08.27.14zm-1.23 2.22a.35.35 0 0 0 .33-.21c.15-.28-.06-.49-.26-.67s-.63-.48-.94-.72a9.64 9.64 0 0 0-2.1-1.38c-.38-.16-.81 0-.63.5s.8.71 1.13.95l1.08.78c.32.22.96.76 1.39.75zM33.41 8.4c.86.49.91 1.24 1.15 2.14 0 .18.11.35.15.53s.1.22-.16.35a2.72 2.72 0 0 1-1.17.26c-.21-.11-.28-.82-.35-1s-.2-1.14-.54-1.34-.77 0-.84.26.24.82.31 1.12.39.95.31 1.24-.6.33-.86.39c-.44.1-.56 0-.69-.39s-.2-.7-.29-1.05c-.24-1-.47-1.95-.77-2.9a9.78 9.78 0 0 1-.33-1.14c-.14-.68.11-.6.72-.77.8-.22 2.13-.91 2.9-.37a2 2 0 0 1 .75 1.41 2.34 2.34 0 0 1 0 .7c-.08.16-.29.37-.29.56zm-1.23-.67c0-.32-.15-1-.51-1.06s-.69.07-.64.42.2 1.14.42 1.26.75-.35.73-.62zm35.39 34.64c0-.41.05-.82.08-1.23s.09-.44.45-.5c.64-.11 1.3-.17 2-.24s1.45-.25 2.17-.35c.44-.06.87-.13 1.3-.17s.66-.17.78.15a2.91 2.91 0 0 1-.08 1.09c-.1.46-.43.37-.83.43s-.47.28-.48.72 0 .62.57.77c.2.06.49.06.58.27a1.91 1.91 0 0 1 0 .63c0 .35.07.8-.38.82a3.8 3.8 0 0 1-1-.27c-.4-.1-.8-.22-1.19-.33-.74-.22-1.46-.55-2.21-.71-.38-.09-.75-.2-1.13-.31s-.63-.26-.63-.77zm3.38-.6a14.08 14.08 0 0 0-2 .17 13.5 13.5 0 0 0 2.41.59c.11 0 .3.09.4 0a1 1 0 0 0 .07-.65c-.15-.27-.6-.1-.83-.11zM36.2 10.32c0-.85-.17-1.72-.18-2.57a4.9 4.9 0 0 1 .17-2.41 2.32 2.32 0 0 1 3.69.07 5.46 5.46 0 0 1 .29 2.24 9.72 9.72 0 0 1 0 2.35 1.82 1.82 0 0 1-1.73 1.16 2.78 2.78 0 0 1-1.25-.07c-.54-.16-.61-.5-.99-.77zm1.47-1c0 .35 0 1 .51 1s.39-.4.41-.69a22.69 22.69 0 0 0-.09-3.08c0-.35 0-1-.5-1s-.45.69-.44 1c.03.9.11 1.82.11 2.73zm-1.84 59.95a9.8 9.8 0 0 1-.33 2.27 5.91 5.91 0 0 1-.69 2.39c-.88 1.12-3.43.42-3.67-1a8.15 8.15 0 0 1 .41-2.71c.14-.73.2-1.78.82-2.29a2.39 2.39 0 0 1 2.12-.12 2.5 2.5 0 0 1 1.07.67s.44.79.27.79zm-1.51-.14a.46.46 0 0 0-.78-.34c-.3.29-.29.9-.36 1.29-.14.84-.38 1.69-.46 2.55 0 .33 0 1 .6.79.36-.15.4-.86.46-1.19a16.5 16.5 0 0 0 .54-3.1zm-22.15-24.7a8.21 8.21 0 0 0 .13 1.07 2.26 2.26 0 0 1-.2 1.18c-.41.71-1.46.8-2.19.94a9.26 9.26 0 0 1-2.65.45 1.71 1.71 0 0 1-1.34-1.39 2.58 2.58 0 0 1 .24-2.27c.46-.48 1.47-.52 2.07-.65a22.23 22.23 0 0 1 2.28-.41c.89-.09 1.23.4 1.66 1.08zm-1.46.46a12.42 12.42 0 0 0-2.82.53 1.7 1.7 0 0 0-1 .39.41.41 0 0 0 .31.7 5.43 5.43 0 0 0 1.49-.22L10 46c.3-.06 1-.13 1.22-.39s-.11-.76-.51-.72zm6.64-22.73a3.13 3.13 0 0 1-.54.8c-.36.46-.44.45-.78 0s-1-1.17-1.39-1.79-.89-1.17-1.35-1.75c-.23-.29-.7-.62-.82-1s.23-.57.43-.82.35-.43.53-.63.31-.35.66-.18c.73.34 1.48.67 2.18 1.07s1.32.74 2 1.07c.21.1 1 .35 1.07.57s-.23.47-.37.66c-.27.35-.41.64-.87.44-.26-.11-.57-.43-.84-.25a2.28 2.28 0 0 0-.37.53.61.61 0 0 0-.14.34c.03.36.45.68.6.94zM14 18.22c-.16.07.82 1 1 1.1s.42.49.65.71.33.39.6.11.32-.27.22-.47-.67-.41-.85-.52a8.11 8.11 0 0 0-1.62-.93zm-2.17 21.09c0 .91-.22 2.14-1.25 2.34-.17 0-.58.13-.74 0s-.05-.42-.05-.59-.14-.62 0-.76.66 0 .91-.22c.55-.38 0-1-.56-.94s-.73.59-1 1a6.76 6.76 0 0 1-.89 1.23 1.79 1.79 0 0 1-1.73.31 1.88 1.88 0 0 1-1.28-2c0-1.12.43-2 1.64-2.13.6 0 .76 0 .72.6a3 3 0 0 1 0 .73c-.11.27-.2.21-.45.22-.44 0-1 .13-.83.73s.84.51 1.2.26a2.42 2.42 0 0 0 .48-.8c.16-.25.34-.49.5-.74a1.78 1.78 0 0 1 1.17-.95 2.19 2.19 0 0 1 1.51.22 1.78 1.78 0 0 1 .65 1.49zM53.7 14.52a2.61 2.61 0 0 1-2.37-1.25c-.46-.84.19-1.86.56-2.63.23-.47.44-1 .71-1.39s.56-1.06 1.06-1.25a2.9 2.9 0 0 1 2.56.73 1.52 1.52 0 0 1 .57 1.12 2.06 2.06 0 0 1-.44 1.25c-.26.2-.92-.22-1.16-.43-.46-.39.27-.82.09-1.33a.53.53 0 0 0-.81-.21c-.4.32-.59 1.16-.83 1.6s-.41.88-.63 1.33-.62 1-.15 1.31.85-.73 1.14-1 .37-.14.66 0a5.42 5.42 0 0 1 .6.26c.49.31-.08 1-.34 1.3a1.5 1.5 0 0 1-1.22.59zM49 71.71c-.11-.46-.16-1-.25-1.43s-.18-.84-.26-1.26-.19-1-.29-1.46c0-.15-.14-.38 0-.52s.6-.19.78-.24c.44-.12.65-.31.74.22s.15 1.08.21 1.62c.12 1 .27 2 .39 2.93 0 .25.07.51.11.76a2.44 2.44 0 0 1 .09.75c-.1.32-.73.38-1 .47s-.78.43-1.06 0a12.42 12.42 0 0 1-.67-1.31c-.49-1-1-1.91-1.47-2.89a8.75 8.75 0 0 1-.62-1.22c-.1-.41.59-.5.93-.62s.34-.16.52.08a5.2 5.2 0 0 1 .32.77c.21.5.39 1 .6 1.5s.39.91.59 1.36c-.02.14.34.88.34.49zm10.54-6.33c.3.07.73.92.85 1.2a1.34 1.34 0 0 1 0 1.11A2.67 2.67 0 0 1 58 69.27c-.92-.08-1.47-1.14-2-1.81s-1.52-1.71-1.44-2.68a2.64 2.64 0 0 1 1.87-2 1.42 1.42 0 0 1 1.27.13c.27.17.92.77.7 1.09a3.59 3.59 0 0 1-1.06.69c-.42-.06-.39-.87-1-.81-1.16.12.32 1.85.55 2.21s1.62 2.78 2.18 1.75c.13-.26 0-.51-.15-.73s-.55-.7-.51-.85c.07-.26.87-.68 1.13-.88zM9.18 54.37c-1.08 0-1.63-1.31-1.72-2.28s.54-1.48 1.43-1.87c.42-.19.85-.34 1.28-.52a7.46 7.46 0 0 1 1.43-.53 1.66 1.66 0 0 1 2 1c.44.94.59 2.16-.44 2.74-.45.25-.82.5-1-.11-.07-.2-.1-.43-.15-.64s-.14-.24.16-.41.75-.19.81-.6c.11-.71-.66-.61-1.09-.47s-1 .37-1.55.56a8.74 8.74 0 0 0-1.52.6c-.47.3-.52 1 .16 1.05.33 0 1.11-.5 1.35-.31a2.39 2.39 0 0 1 .4 1.3c-.11.24-1.55.51-1.55.49zm6.17-29.52a2.62 2.62 0 0 1-1.83 2.49c-.86.12-1.88-.68-2.6-1.09s-1.86-.84-2-1.84A2.83 2.83 0 0 1 10.17 22c.49-.3 2.3-.19 1.91.64-.17.35-.45 1-.87.86s-1-.63-1.15 0c-.28.83 1.41 1.28 1.9 1.57s1.71 1.35 2.19.78-.4-.94-.74-1.16c-.14-.09-.36-.16-.36-.34a2.63 2.63 0 0 1 .45-.88c.16-.27.17-.29.47-.17a4.43 4.43 0 0 1 .62.3 1.4 1.4 0 0 1 .76 1.25zm.95 36.69c-.39 0-.66-.74-.93-.94s-.58.14-.86.35c-.51.39-.57.49-.18.95a5.57 5.57 0 0 1 .72.9c.12.24.15.2 0 .41a2 2 0 0 1-.49.4c-.41.11-.72-.61-.92-.89a9 9 0 0 0-.79-.95c-.19-.2-.75-.68-.63-1s.57-.45.75-.61c.34-.29.7-.54 1-.83.77-.66 1.57-1.28 2.37-1.91.19-.14.37-.33.57-.46s.15-.14.36 0a3.43 3.43 0 0 1 .81.89 9.59 9.59 0 0 0 .69 1c.33.45.58.74 0 1.13s-.73-.15-1-.53c-.11-.15-.37-.61-.56-.64s-.45.3-.6.43-.5.29-.48.54.36.43.46.57.4.5.29.76a1.24 1.24 0 0 1-.58.43zM28.2 9.16c0 .42.17.82-.07 1.23a2 2 0 0 1-.83.69c-.3.16-.81.21-.75.62a5.23 5.23 0 0 0 .58 1.19c.13.3.49.74.26 1-.1.13-.41.17-.55.23s-.33.22-.49.23c-.36 0-.42-.44-.56-.73s-.36-.86-.58-1.27c-.39-.76-.76-1.56-1.11-2.35-.09-.2-.15-.42-.24-.63a2.87 2.87 0 0 1-.23-.51c0-.4.48-.48.82-.64a4 4 0 0 1 2.34-.73 1.34 1.34 0 0 1 .86.65c.19.32.27.86.55 1.02zm-1.47.74a1.88 1.88 0 0 0-.45-1c-.27-.27-.92-.15-.9.27 0 .18.23.46.3.62a2.5 2.5 0 0 0 .33.7c.29.23.72-.24.72-.59zm22.69 2.93c-.4.05-1-.39-1.37-.52l-1.29-.45c-.43-.15-.42-.3-.26-.79s.3-.88.42-1.33c.29-1 .65-2 .94-3a3.19 3.19 0 0 1 .34-1.07c.22-.27.65 0 .93.13.45.17.92.26 1.37.43.28.1.88.2 1 .51s-.12.86-.5.85-.87-.35-1.3-.42-.41.25-.51.61c0 .16-.22.54-.15.71s.52.26.68.31c.38.13.75.13.7.57s-.23.65-.69.5a3 3 0 0 0-.83-.24c-.29 0-.32.12-.43.39-.19.49-.53 1.07.1 1.26a5.58 5.58 0 0 1 .58.18c.18.07.66.16.77.31s-.09 1.06-.5 1.06zM25.09 64.4a15.63 15.63 0 0 0-.61 2.13c.08.06 1.31-1.34 1.49-1.47s.15-.13.36-.08a2.88 2.88 0 0 1 .5.3c.16.1.73.29.7.52s-.72.55-.88.67l-.95.74a5 5 0 0 0-1.7 1.84c-.17.33-.35.65-.55 1s-.25.58-.6.44a2.72 2.72 0 0 1-.9-.56c-.16-.28.26-.74.4-1s.4-.71.61-1.06a2.66 2.66 0 0 0 .3-1.11c.14-.88.26-1.76.37-2.66.05-.44 0-.87.46-.51.18.13 1.01.52 1 .81zm12.45 9.41c.08-1.67 0-3.35 0-5 0-.46.15-.4.58-.4h1.31a4.21 4.21 0 0 1 1.23 0c.23.1.28.69.16.92-.27.5-1.24-.12-1.64.2-.22.17-.1.66-.09.91 0 .43-.09.51.3.57s.8-.09 1 0 .2.56.14.81c-.09.4-.41.28-.77.28s-.74-.08-.73.44 0 .91 0 1.36c0 .22.1.82 0 1s-.94.09-1.19.06-.25 0-.32-.24a4.71 4.71 0 0 1 .02-.91zm5.72-62.48c-.43 0-.91.08-1-.43a6 6 0 0 1 .19-1.56c.16-.93.23-1.87.33-2.81 0-.23.16-.58 0-.74s-.5 0-.66-.06c-.59 0-.7-.27-.55-.86.07-.31.08-.29.39-.27l.77.09c.39 0 .79 0 1.18.08s.82 0 1.23.09c.57.07.86 0 .8.69s-.45.54-1 .54-.5.14-.54.7c-.07.92-.15 1.86-.26 2.78-.06.47-.08 1-.17 1.45 0 .17 0 .24-.18.31s-.53-.01-.53 0zm14 5.76a2.63 2.63 0 0 1-.87-.57c-.37-.3-.2-.43 0-.77.44-.6.88-1.2 1.35-1.77s.8-1 1.2-1.56c.3-.37.28-.51-.1-.82s-.58-.32-.48-.68.36-.65.62-.61a3.13 3.13 0 0 1 .6.4c.64.43 1.17 1 1.77 1.44.24.18.69.4.82.68s-.17.71-.39.85c-.51.34-.84-.75-1.31-.54-.26.12-.55.73-.77.95a11.44 11.44 0 0 0-.9 1.08c-.24.29-.48.57-.71.87s-.49.96-.83 1.05zm-35.64.56a2 2 0 0 1-.54.59c-.1.09-.41.44-.53.44s-.18-.16-.27-.27c-.43-.55-.89-1.08-1.34-1.61A17.56 17.56 0 0 0 17.4 15c-.32-.29-.43-.19-.73.07s-.63.71-1 .28c-.12-.14-.34-.49-.27-.66s.58-.51.76-.67c.5-.42 1-.86 1.46-1.3a6 6 0 0 1 .74-.68c.36-.22.58.11.79.42.41.57-.58.68-.77 1.12s.38.62.57.83.6.71.91 1.05l1 1.11c.22.23.8.78.76 1.08zM64.71 64a2.93 2.93 0 0 1-.78.83c-.29.26-.4.09-.64-.17l-1.67-1.76c-.46-.48-.94-1-1.44-1.42-.75-.64-.92 1-1.55.5-.27-.2-.52-.46-.33-.74a5.76 5.76 0 0 1 .75-.81c.56-.58 1.13-1.13 1.69-1.71.17-.17.35-.47.59-.38s.58.59.5.8-.47.44-.6.6c-.3.37-.08.52.22.82.6.63 1.23 1.25 1.83 1.88l.66.67c.23.24.69.57.77.89zm-44.46-2a2.44 2.44 0 0 0-.74-.69c-.4-.29-.18-.41.11-.74s.29-.35.67 0l.94.79 1.48 1.24c.25.21.53.4.38.72s-.45.63-.76.47a4 4 0 0 1-.67-.56c-.31-.28-.42-.12-.66.22a15.15 15.15 0 0 1-1.14 1.4c-.52.6-1 1.21-1.51 1.83-.24.29-.34.44-.66.17S17 66.24 17 66s.7-.94.87-1.15.52-.61.77-.94.57-.71.85-1.07.6-.53.76-.84zm38.87-43.31c0-.27.44-.57.61-.74l.69-.68c.41-.44.84-.86 1.28-1.26s1-1.07 1.56-1.6c.23-.25.28-.34.57-.15a3.07 3.07 0 0 1 .72.72c.23.47-.7 1.12-1 1.43-.53.46-1 1-1.45 1.46s-.95 1-1.43 1.44c-.29.29-.43.47-.82.22-.23-.13-.75-.63-.73-.84zM54 71.81c-.42 0-.74-1.2-.91-1.57-.32-.72-.69-1.43-1-2.14s-.54-1.15-.82-1.72c-.18-.36-.24-.4.11-.61a3.09 3.09 0 0 1 .86-.41c.35-.07.39.26.53.55l.45 1c.33.73.69 1.44 1 2.16s.59 1.17.84 1.78c.14.32.19.38-.15.55a3.26 3.26 0 0 1-.91.41zM73.41 47.5c-.11.54-.06 1.35-.74 1.24a17.52 17.52 0 0 1-2.17-.5c-.72-.2-1.46-.28-2.18-.45-.33-.08-.65-.15-1-.21s-.54-.09-.5-.51a2.2 2.2 0 0 1 .19-1c.18-.24.41-.1.69 0 .61.12 1.23.23 1.83.39s1.38.31 2.08.45c.3.09 1.81.19 1.8.59zM13.33 55a3 3 0 0 0 1-.53c.16-.1.72-.58.92-.55a2 2 0 0 1 .75 1.26c-.08.19-.64.42-.81.52l-.89.53c-.65.38-1.29.76-1.93 1.17-.35.23-.69.43-1 .66s-.63.51-.9.34-.36-.61-.45-.78c-.21-.41-.18-.46.18-.7.51-.34 1.07-.61 1.57-1a8.14 8.14 0 0 0 1.56-.92z" fill="#fff"/><path d="M41.67 18.88c.49.33.36.84.39 1.39a12.75 12.75 0 0 0 .27 1.94 3.62 3.62 0 0 1 0 1.7 2.24 2.24 0 0 0-.18.91 3.14 3.14 0 0 0 .39.69 6.92 6.92 0 0 1 .57 1.56 8.3 8.3 0 0 1 .14.87 2.5 2.5 0 0 0 .1.58c.13.1 3.87-1.51 3.87-1.07a7.46 7.46 0 0 1-1.55.49c-.68.22-1.33.45-2 .73-.23.1-.4.14-.49.37l-.12.58s1.17-.15 1.37-.17a22.65 22.65 0 0 1 3.77-.14c.67 0 1.33.06 2 .13 0 0 .65 0 .55.17s-.64 0-.8 0a27.93 27.93 0 0 0-4.09-.08c-.3 0-3.34.25-3.11.76.06.15 1.42.22 1.62.26a12.41 12.41 0 0 1 2 .62A10.77 10.77 0 0 1 48 32c.1.06.46.25.25.36s-.67-.29-.79-.35a12.22 12.22 0 0 0-3.76-1.28c-.49-.07-1-.26-1.3.21a1 1 0 0 0 .32 1.44 9.45 9.45 0 0 0 2.63 1.52 6.69 6.69 0 0 1 1.38.72c.43.26.88.49 1.3.76a18.86 18.86 0 0 1 2.85 2.1 12.47 12.47 0 0 1 .94 1c.29.36.65.67.93 1a12.33 12.33 0 0 1 1.56 2.76 9.37 9.37 0 0 1 .53 2.93 15.06 15.06 0 0 1-.61 6.26 19.29 19.29 0 0 1-1.36 2.87 15.35 15.35 0 0 0-1.57 2.44 7.5 7.5 0 0 1-.56 1.45 5.56 5.56 0 0 1-1.41 1.41A9.89 9.89 0 0 1 47 61.06a10.86 10.86 0 0 1-6.74 0 13.06 13.06 0 0 0-2.95-.58 5.51 5.51 0 0 0-3.33 1 8.3 8.3 0 0 1-1.2.75c-.63.26-1-.33-.85-.9a3.76 3.76 0 0 1 .77-1.23 5.25 5.25 0 0 1 1.21-1.1 8.12 8.12 0 0 1 2.79-1.1 9.71 9.71 0 0 1 3.3.1c1.93.33 4.07.75 5.91-.13.22-.1 1.14-.4 1-.7s-1.62-.1-1.9-.14a27.21 27.21 0 0 0-3.38-.12c-1.15 0-2.32.12-3.48.15-.43 0-1.36.11-1.5-.42-.2-.7.5-.85 1-.89s1.08-.22 1.12-.79a1.31 1.31 0 0 0-.18-.58 4.28 4.28 0 0 1-.28-1 7.74 7.74 0 0 1 5.53-8.9 7.66 7.66 0 0 1 2-.27 8.69 8.69 0 0 1 .89 0c.14 0 .67.17.76.09s-1-.45-1.09-.49a3.79 3.79 0 0 0-1.57-.22 7.88 7.88 0 0 0-3.09 1 8.69 8.69 0 0 0-3.82 5c-.33.92-.43 1.91-.74 2.84a9.14 9.14 0 0 0-.9 2.57c0 .72.65 1.78-.41 2.12-.49.16-.79-.21-1.25-.21s-.86.23-1.31.13a.86.86 0 0 1-.55-.26c-.06-.07-.14-.48-.2-.5s-.16.15-.24.21a1.36 1.36 0 0 1-.69.14 10.31 10.31 0 0 1-1.24-.07c-.47 0-.94 0-1.42-.05-1.1 0-1.2-1.14-.47-1.8a8.33 8.33 0 0 1 1.2-.67c.46-.3.4-.81.4-1.3a26.55 26.55 0 0 0-1-5.79 24.05 24.05 0 0 1-.34-2.94 8.31 8.31 0 0 1 0-1.32 15 15 0 0 1 .07-1.9 13.49 13.49 0 0 1 .83-2.64c.31-.86.62-1.69 1-2.51a7.72 7.72 0 0 0 1.09-2.62c0-.43-.18-.57-.45-.89a3.51 3.51 0 0 0-.76-.82c-.33-.15-1 .13-1.34.23a11 11 0 0 0-1.57.59 13.13 13.13 0 0 0-1.43.77c-.21.13-.95.82-1.21.78s.71-.73.83-.81a13.93 13.93 0 0 1 1.51-.85 10.93 10.93 0 0 1 1.37-.56q.41-.13.81-.24a2.86 2.86 0 0 0 .74-.16c.28-.38-.59-.38-.77-.4a15.46 15.46 0 0 0-1.93 0 27.37 27.37 0 0 0-3.72.45c-.31.05-.61.11-.91.18a2.57 2.57 0 0 1-.72.15c-.54-.07.46-.27.61-.3a30.55 30.55 0 0 1 3.53-.58 17.17 17.17 0 0 1 3-.08c.54 0 .67.18.48-.35s-.42-.47-.92-.61a25.67 25.67 0 0 0-3.26-.62c-.7-.11 0-.17.31-.14.61.08 1.22.17 1.82.29s1 .31 1.51.36c.29 0 .24.07.21-.24a7 7 0 0 1-.05-1 4.69 4.69 0 0 1 .24-1.45 5.1 5.1 0 0 1 .26-.58c.08-.15.28-.35.31-.52.06-.36-.29-1-.38-1.33a6.28 6.28 0 0 1-.19-1.37 9.58 9.58 0 0 1 .16-3.07c.29-.86 2.08.83 2.43 1.05l1.15.73c.36.24.61.52 1.07.37a8.3 8.3 0 0 1 2.72-.39c.22 0 .44.05.66.06s.36-.07.61-.31a11.2 11.2 0 0 1 1.3-1.09 8.9 8.9 0 0 1 1.89-1.39zm-7.73 32.59a9.86 9.86 0 0 0-.25-2.29 15.89 15.89 0 0 0-.63-1.75c-.07-.18-.18-.6-.22-.17a5.23 5.23 0 0 0 .17.86c.06.51.11 1 .16 1.53a17 17 0 0 1 0 2 18.62 18.62 0 0 1-.11 2c0 .18-.16.6 0 .68s.39-.51.44-.64a5.59 5.59 0 0 0 .44-2.22zm5.28-25.34c0-.17-.91.23-1 .31a1.93 1.93 0 0 0-.63 1c0 .09-.19.57-.08.62s.31-.11.45-.1a7.1 7.1 0 0 0 1.15.24 1.47 1.47 0 0 0 1-.45c.17-.2.18-.45.32-.64a.24.24 0 0 1 .09-.15.28.28 0 0 1 .29-.05c.18-.16-.16-.26-.36-.38a2.18 2.18 0 0 0-1.23-.4zm-4.46 2.1c0-.77-.39-1.54-1.21-1.63a1.73 1.73 0 0 0-1 .22c-.16.07-.8.22-.82.41s.1.07.2.17a2.22 2.22 0 0 1 .32.42 1.29 1.29 0 0 0 .65.65 1.53 1.53 0 0 0 1 0 1.9 1.9 0 0 1 .57-.18c.09 0 .29.16.29-.06zm1.32 3.48a3.23 3.23 0 0 0 1.22.29c.1 0 .87 0 .88-.18s-.63-.09-.73-.11a4 4 0 0 1-.8-.28c-.13-.06-.37-.25-.52-.24s0 .06-.19.16a5.32 5.32 0 0 1-.95.57c-.46.16-.46.3 0 .24a3.11 3.11 0 0 0 1.09-.45zm1.15-1.58c0-.34-.81-.08-1-.05s-1.28-.09-1 .4a1.09 1.09 0 0 0 1 .43c.23-.1.94-.54 1-.78zm29.6 21c.34 0 1 .25 1.11.62a.76.76 0 0 1-.09.49c-.17.23-.23.14-.5 0a3.72 3.72 0 0 1-1-.39c-.25-.2.1-.77.48-.72zm-.01-31.86c0 .41-.62.7-.91.93s-.6.43-.88.67-2.17 1.91-2.12.76c0-.38.64-.74.91-1s.64-.44.94-.68 2-1.84 2.06-.68zm.36 39.95c-.41 0-1-.49-1.32-.7s-.71-.52-1.07-.78a4.16 4.16 0 0 1-1.18-.93c-.27-.46.19-.75.6-.57a9.29 9.29 0 0 1 2 1.33l.94.72c.21.17.43.34.35.64s-.14.32-.32.29zm-35-51.49c0 .3-.32.78-.69.65s-.43-1.06-.49-1.29.23-.49.58-.43.6.72.6 1.07zM71 41.77c.28 0 .73-.17.89.12a1.19 1.19 0 0 1 0 .62c-.11.11-.28.05-.42 0a13.28 13.28 0 0 1-2.47-.57 14 14 0 0 1 2-.17zM37.67 9.28c0-.87-.07-1.76-.1-2.64 0-.37-.14-1 .35-1.13s.55.62.58 1a24.74 24.74 0 0 1 .11 3c0 .29 0 .71-.36.78-.54.05-.56-.66-.58-1.01zm-3.35 59.85a17.59 17.59 0 0 1-.53 3c-.06.34-.1 1-.41 1.2-.57.36-.69-.38-.66-.74.08-.84.32-1.67.46-2.5a2.76 2.76 0 0 1 .33-1.3c.26-.26.86-.13.81.34zM10.71 44.89c.4 0 .83.35.52.75s-.9.36-1.23.36l-1.33.26a5.43 5.43 0 0 1-1.49.22c-.4 0-.57-.39-.31-.7a1.7 1.7 0 0 1 1-.39 12.42 12.42 0 0 1 2.84-.5zM14 18.22a8.05 8.05 0 0 1 1.52.89 3.39 3.39 0 0 1 .84.52c.17.24.06.26-.16.51s-.27.19-.53-.05-.42-.47-.64-.69-1.23-1.12-1.03-1.18zM26.73 9.9c0 .28-.38.81-.69.61-.15-.1-.24-.51-.31-.66a2.53 2.53 0 0 1-.35-.72c0-.37.57-.54.84-.32a1.79 1.79 0 0 1 .51 1.09z" fill="#2e2356"/><path d="M33.94 51.47a6 6 0 0 1-.34 2.14c-.05.14-.23.72-.43.74s-.11-.55-.09-.7a13 13 0 0 0 .1-1.87 16.82 16.82 0 0 0 0-2.13c-.05-.5-.1-1-.16-1.51 0-.27-.31-1.67.05-.71a15.65 15.65 0 0 1 .61 1.66 10 10 0 0 1 .26 2.38zm5.28-25.34a2.18 2.18 0 0 1 1.26.36c.2.12.54.23.36.38a.28.28 0 0 0-.29.05.24.24 0 0 0-.09.15c-.14.19-.15.44-.32.64a1.47 1.47 0 0 1-1 .45 6.89 6.89 0 0 1-1.15-.24c-.14 0-.34.14-.45.1s0-.53.08-.62a2 2 0 0 1 .63-1c.06-.04.96-.4.97-.27zM39 28a1.12 1.12 0 0 0 1-.52.73.73 0 0 0 0-.63c-.05-.09-.31-.35-.42-.28s0 .41 0 .52a.76.76 0 0 1-.23.62c-.45.36-.94-.55-.71-.71.08-.06.41.59.48 0s-.46-.51-.75-.39C37.59 27 38.31 28 39 28zm-4.24.23c0 .12-.63.15-.83.22a1.58 1.58 0 0 1-1 0 1.25 1.25 0 0 1-.65-.65 1.19 1.19 0 0 0-.25-.38c-.11-.1-.3 0-.27-.21s.67-.34.82-.41a1.66 1.66 0 0 1 1-.22c.79.11 1.13.88 1.18 1.65zm-.8-.81c.08 0-.14.65-.29.72s-.77-.25-.63-.56.35.28.41-.16-.31-.43-.56-.37c-.89.23-.16 1.29.48 1.3.36 0 .82-.12.89-.52.03-.21-.26-.93-.26-.41zm2.12 4.29a3.11 3.11 0 0 1-1 .43c-.5.06-.51-.08 0-.24a5.32 5.32 0 0 0 .95-.57c.09 0 .08-.15.19-.16s.39.18.52.24a3.46 3.46 0 0 0 .8.28c.1 0 .74 0 .73.11s-.78.18-.88.18a3.23 3.23 0 0 1-1.31-.27zm1.15-1.58c-.07.27-.71.58-.94.72s-.16.16-.4 0a1.66 1.66 0 0 1-.64-.42c-.3-.47.57-.36.85-.39s1.13-.25 1.13.09z" fill="#fff"/><path d="M39 28c-.72 0-1.46-1-.53-1.36.28-.12.81 0 .75.39s-.4-.09-.48 0c-.26.17.26 1 .66.76s0-1.08.23-1.19.34.15.38.22a.65.65 0 0 1 0 .62A1.06 1.06 0 0 1 39 28zm-5-.58c0-.52.33.2.3.41-.07.4-.53.53-.89.52-.64 0-1.38-1.07-.48-1.3.25-.06.6.06.56.37s-.3-.05-.41.16.4.67.63.56.29-.72.29-.72z" fill="#2e2356"/></svg>